<mxfile host="app.diagrams.net" modified="2024-01-22T01:54:53.957Z" agent="Mozilla/5.0 (Windows NT 10.0; Win64; x64) AppleWebKit/537.36 (KHTML, like Gecko) Chrome/120.0.0.0 Whale/3.24.223.21 Safari/537.36" version="22.1.21" etag="KqpmZ4y143OQuRhSxHB8" type="github">
  <diagram name="페이지-1" id="Q4QwCA6k9D667hmaGtyQ">
    <mxGraphModel>
      <root>
        <mxCell id="0" />
        <mxCell id="1" parent="0" />
      </root>
    </mxGraphModel>
  </diagram>
</mxfile>
